<svg xmlns="http://www.w3.org/2000/svg" width="160" height="160" viewBox="0 0 160 160" fill="none"><g clip-path="url(#clip0_5_512)"><path d="M150.64 36.36L123.68 9.40004C117.68 3.40004 109.52 0.0400391 101.04 0.0400391H58.96C50.48 0.0400391 42.32 3.40004 36.32 9.40004L9.36 36.36C3.36 42.36 0 50.48 0 58.96V101.04C0 109.52 3.36 117.68 9.36 123.68L36.32 150.64C42.32 156.64 50.48 160 58.96 160H101.04C109.52 160 117.68 156.64 123.68 150.64L150.64 123.68C156.64 117.68 160 109.52 160 101.04V58.96C160 50.48 156.64 42.32 150.64 36.32V36.36ZM127.44 127.44C127.12 127.52 126.52 127.64 125.52 127.64C117.6 127.64 106.2 121.52 101.64 118.88C97.88 116.68 94.08 114.2 90.24 111.44C93.92 108.24 97.56 104.84 101.2 101.24C104.84 97.64 108.2 93.96 111.4 90.28C115.64 96.16 119.24 102 122 107.52C127.96 119.44 127.88 125.76 127.44 127.44ZM92.16 92.16C88.2 96.12 84.12 99.88 80 103.36C75.88 99.88 71.8 96.16 67.84 92.16C63.88 88.16 60.12 84.12 56.64 80C60.12 75.88 63.88 71.8 67.84 67.84C71.8 63.88 75.88 60.12 80 56.64C84.12 60.12 88.2 63.84 92.16 67.84C96.12 71.8 99.88 75.88 103.36 80C99.88 84.12 96.12 88.2 92.16 92.16ZM32.56 127.44C32.12 125.76 32.04 119.44 38 107.52C40.76 101.96 44.36 96.16 48.6 90.28C51.8 93.96 55.2 97.6 58.8 101.24C62.4 104.88 66.08 108.24 69.76 111.44C65.92 114.2 62.12 116.72 58.36 118.88C44.72 126.8 37.12 127.64 34.48 127.64C31.84 127.64 32.88 127.52 32.56 127.44ZM32.56 32.56C32.88 32.48 33.48 32.36 34.48 32.36C42.4 32.36 53.8 38.48 58.36 41.12C62.12 43.32 65.92 45.8 69.76 48.56C66.08 51.76 62.44 55.16 58.8 58.76C55.16 62.36 51.8 66.04 48.6 69.72C44.36 63.84 40.76 58 38 52.48C32.04 40.56 32.12 34.24 32.56 32.56ZM101.2 58.8C97.6 55.2 93.92 51.8 90.24 48.6C94.08 45.84 97.88 43.32 101.64 41.16C115.28 33.24 122.88 32.4 125.52 32.4C128.16 32.4 127.12 32.52 127.44 32.6C127.88 34.28 127.96 40.6 122 52.52C119.24 58.08 115.64 63.88 111.4 69.76C108.2 66.08 104.8 62.44 101.2 58.8ZM58.96 12.8H101.04C106.16 12.8 111 14.8 114.6 18.44L116.92 20.76C106.44 23.36 93.44 30.16 80 40.28C66.56 30.16 53.56 23.32 43.08 20.76L45.4 18.44C49.04 14.8 53.84 12.8 58.96 12.8ZM12.8 101.04V58.96C12.8 53.84 14.8 49 18.44 45.4L20.76 43.08C23.36 53.56 30.16 66.56 40.28 80C30.16 93.44 23.32 106.44 20.76 116.92L18.44 114.6C14.8 110.96 12.8 106.16 12.8 101.04ZM101.04 147.2H58.96C53.84 147.2 49 145.2 45.4 141.56L43.08 139.24C53.56 136.64 66.56 129.84 80 119.72C93.44 129.84 106.44 136.68 116.92 139.24L114.6 141.56C110.96 145.2 106.16 147.2 101.04 147.2ZM147.2 101.04C147.2 106.16 145.2 111 141.56 114.6L139.24 116.92C136.64 106.44 129.84 93.44 119.72 80C129.84 66.56 136.68 53.56 139.24 43.08L141.56 45.4C145.2 49.04 147.2 53.84 147.2 58.96V101.04Z" fill="white"></path></g><defs><clipPath id="clip0_5_512"><rect width="160" height="160" fill="white"></rect></clipPath></defs></svg>